REM DIRINDEX 1\2\5,1\2\6,1\2\7,1\2\8,1\3\9,1\3\10,1\3\11,1\4\12,1\4\13,1\4\14,1\4\15,1\4\16
REM DIRNAME cjc034,folder01,folder02,folder03,folder04,folder05,folder06,folder07,folder08,folder09,folder10,folder11,folder12,folder13,folder14,folder15
TITLE ""
FILE "1200_2_sec03_0639_0654.mp3" MP3
  TRACK 01 AUDIO
    TITLE "0:"
    INDEX 01 00:00:00
  TRACK 02 AUDIO
    TITLE "10:cjc034_01310"
    INDEX 01 00:00:15
  TRACK 03 AUDIO
    TITLE "0:"
    INDEX 01 00:01:28
  TRACK 04 AUDIO
    TITLE "9:cjc034_01311"
    INDEX 01 00:01:30
  TRACK 05 AUDIO
    TITLE "0:"
    INDEX 01 00:02:47
  TRACK 06 AUDIO
    TITLE "10:cjc034_01312"
    INDEX 01 00:03:29
  TRACK 07 AUDIO
    TITLE "0:"
    INDEX 01 00:04:42
  TRACK 08 AUDIO
    TITLE "9:cjc034_01313"
    INDEX 01 00:04:44
  TRACK 09 AUDIO
    TITLE "0:"
    INDEX 01 00:05:48
  TRACK 10 AUDIO
    TITLE "10:cjc034_01314"
    INDEX 01 00:06:31
  TRACK 11 AUDIO
    TITLE "0:"
    INDEX 01 00:07:45
  TRACK 12 AUDIO
    TITLE "9:cjc034_01315"
    INDEX 01 00:07:51
  TRACK 13 AUDIO
    TITLE "0:"
    INDEX 01 00:08:64
  TRACK 14 AUDIO
    TITLE "10:cjc034_01316"
    INDEX 01 00:09:47
  TRACK 15 AUDIO
    TITLE "0:"
    INDEX 01 00:11:58
  TRACK 16 AUDIO
    TITLE "9:cjc034_01317"
    INDEX 01 00:11:62
  TRACK 17 AUDIO
    TITLE "0:"
    INDEX 01 00:12:65
  TRACK 18 AUDIO
    TITLE "10:cjc034_01318"
    INDEX 01 00:13:51
  TRACK 19 AUDIO
    TITLE "0:"
    INDEX 01 00:14:51
  TRACK 20 AUDIO
    TITLE "9:cjc034_01319"
    INDEX 01 00:14:62
  TRACK 21 AUDIO
    TITLE "0:"
    INDEX 01 00:15:66
  TRACK 22 AUDIO
    TITLE "10:cjc034_01320"
    INDEX 01 00:16:36
  TRACK 23 AUDIO
    TITLE "0:"
    INDEX 01 00:19:20
  TRACK 24 AUDIO
    TITLE "9:cjc034_01321"
    INDEX 01 00:19:26
  TRACK 25 AUDIO
    TITLE "0:"
    INDEX 01 00:20:49
  TRACK 26 AUDIO
    TITLE "11:cjc034_01322"
    INDEX 01 00:22:23
  TRACK 27 AUDIO
    TITLE "0:"
    INDEX 01 00:26:62
  TRACK 28 AUDIO
    TITLE "10:cjc034_01323"
    INDEX 01 00:27:71
  TRACK 29 AUDIO
    TITLE "0:"
    INDEX 01 00:29:21
  TRACK 30 AUDIO
    TITLE "9:cjc034_01324"
    INDEX 01 00:29:25
  TRACK 31 AUDIO
    TITLE "0:"
    INDEX 01 00:30:46
  TRACK 32 AUDIO
    TITLE "10:cjc034_01325"
    INDEX 01 00:31:31
  TRACK 33 AUDIO
    TITLE "0:"
    INDEX 01 00:33:54
  TRACK 34 AUDIO
    TITLE "9:cjc034_01326"
    INDEX 01 00:33:58
  TRACK 35 AUDIO
    TITLE "0:"
    INDEX 01 00:35:00
  TRACK 36 AUDIO
    TITLE "10:cjc034_01327"
    INDEX 01 00:35:57
  TRACK 37 AUDIO
    TITLE "0:"
    INDEX 01 00:36:64
  TRACK 38 AUDIO
    TITLE "9:cjc034_01328"
    INDEX 01 00:36:66
  TRACK 39 AUDIO
    TITLE "0:"
    INDEX 01 00:38:16
  TRACK 40 AUDIO
    TITLE "10:cjc034_01329"
    INDEX 01 00:38:73
  TRACK 41 AUDIO
    TITLE "0:"
    INDEX 01 00:40:15
  TRACK 42 AUDIO
    TITLE "9:cjc034_01330"
    INDEX 01 00:40:21
  TRACK 43 AUDIO
    TITLE "0:"
    INDEX 01 00:41:47
  TRACK 44 AUDIO
    TITLE "10:cjc034_01331"
    INDEX 01 00:42:31
  TRACK 45 AUDIO
    TITLE "0:"
    INDEX 01 00:43:33
  TRACK 46 AUDIO
    TITLE "9:cjc034_01332"
    INDEX 01 00:43:39
  TRACK 47 AUDIO
    TITLE "0:"
    INDEX 01 00:44:52
  TRACK 48 AUDIO
    TITLE "10:cjc034_01333"
    INDEX 01 00:45:35
  TRACK 49 AUDIO
    TITLE "0:"
    INDEX 01 00:46:35
  TRACK 50 AUDIO
    TITLE "9:cjc034_01334"
    INDEX 01 00:46:41
  TRACK 51 AUDIO
    TITLE "0:"
    INDEX 01 00:47:54
  TRACK 52 AUDIO
    TITLE "10:cjc034_01335"
    INDEX 01 00:48:36
  TRACK 53 AUDIO
    TITLE "0:"
    INDEX 01 00:50:54
  TRACK 54 AUDIO
    TITLE "9:cjc034_01336"
    INDEX 01 00:50:56
  TRACK 55 AUDIO
    TITLE "0:"
    INDEX 01 00:51:69
  TRACK 56 AUDIO
    TITLE "10:cjc034_01337"
    INDEX 01 00:52:49
  TRACK 57 AUDIO
    TITLE "0:"
    INDEX 01 00:55:20
  TRACK 58 AUDIO
    TITLE "9:cjc034_01338"
    INDEX 01 00:55:28
  TRACK 59 AUDIO
    TITLE "0:"
    INDEX 01 00:56:49
  TRACK 60 AUDIO
    TITLE "11:cjc034_01339"
    INDEX 01 00:58:22
  TRACK 61 AUDIO
    TITLE "0:"
    INDEX 01 01:02:14
  TRACK 62 AUDIO
    TITLE "10:cjc034_01340"
    INDEX 01 01:03:18
  TRACK 63 AUDIO
    TITLE "0:"
    INDEX 01 01:04:31
  TRACK 64 AUDIO
    TITLE "9:cjc034_01341"
    INDEX 01 01:04:35
  TRACK 65 AUDIO
    TITLE "0:"
    INDEX 01 01:05:66
  TRACK 66 AUDIO
    TITLE "10:cjc034_01342"
    INDEX 01 01:06:49
  TRACK 67 AUDIO
    TITLE "0:"
    INDEX 01 01:07:66
  TRACK 68 AUDIO
    TITLE "9:cjc034_01343"
    INDEX 01 01:07:68
  TRACK 69 AUDIO
    TITLE "0:"
    INDEX 01 01:08:72
